Coordinates
version=1
nRows=17
nColumns=33
inDegrees=yes

Units are S.I. units (second, meters, Newtons, ...)
Angles are in degrees.

endheader
time	ground_thorax_rot_x	ground_thorax_rot_y	ground_thorax_rot_z	ground_thorax_tx	ground_thorax_ty	ground_thorax_tz	clav_prot_r	clav_elev_r	scapula_abduction_r	scapula_elevation_r	scapula_upward_rot_r	scapula_winging_r	shoulder_elv_r	plane_of_elev_r	axial_rot_r	elbow_flexion_r	pro_sup_r	wrist_flex_r	wrist_dev_r	clav_prot_l	clav_elev_l	scapula_abduction_l	scapula_elevation_l	scapula_upward_rot_l	scapula_winging_l	shoulder_elv_l	plane_of_elev_l	axial_rot_l	elbow_flexion_l	pro_sup_l	wrist_flex_l	wrist_dev_l
      4.75000000	     30.81541906	     24.18566317	     35.09033418	   -118.79190491	    869.29062980	    -45.92510641	     12.32392553	     33.98285650	     27.80244305	     45.00000000	    -45.00000000	   2428.51704065	    795.19619634	     21.80611703	   -158.93899910	   3598.92705801	    157.79318973	     15.38955745	     14.58506805	     -4.74615725	    -45.00000000	    -41.76973447	     45.00000000	    -45.00000000	   2626.95912669	  -3879.74784938	     24.69884020	     22.76826932	    349.39062186	     39.37290808	     14.25865781	    -21.66551948
      4.76000000	     30.78659704	     24.19256857	     35.18116252	   -118.77400476	    869.01523745	    -45.81536919	     12.69048533	     33.91395144	     27.91481047	     45.00000000	    -45.00000000	   2428.59862902	    795.14448631	     21.71009417	   -158.84674402	   3598.99532070	    158.48654164	     15.78652544	     14.41570023	     -4.85329077	    -45.00000000	    -41.61250691	     45.00000000	    -45.00000000	   2626.88656486	  -3879.73165127	     24.73129385	     22.88249495	    349.21926590	     39.51414425	     14.03613032	    -21.90213117
      4.77000000	     30.65567569	     24.32430175	     35.37899039	   -118.69704315	    868.53860197	    -45.71651909	     12.40699913	     33.98248350	     27.74427461	     45.00000000	    -45.00000000	   2428.65733858	    795.14498135	     21.73596449	   -158.94017060	   3598.94612006	    159.15872141	     15.73348709	     14.45168294	     -4.87997075	    -45.00000000	    -41.59393770	     45.00000000	    -45.00000000	   2626.94735208	  -3879.74123284	     24.61694835	     22.70908326	    349.35362099	     39.72930006	     14.05495581	    -21.97906826
      4.78000000	     30.63625552	     24.31648323	     35.41503468	   -118.55000364	    867.89068508	    -45.63105875	     12.62516839	     33.77527470	     27.73398430	     45.00000000	    -45.00000000	   2428.76041830	    795.04000005	     21.71915451	   -159.04506386	   3598.96133346	    159.66119106	     16.28678502	     14.26903128	     -4.83461993	    -45.00000000	    -41.45784061	     45.00000000	    -45.00000000	   2626.92981873	  -3879.80893076	     24.65089389	     22.49384815	    349.29071359	     39.89095857	     13.73789548	    -22.29969475
      4.79000000	     30.42304957	     24.55291891	     35.74775958	   -118.33375431	    867.11137891	    -45.55677294	     12.43719045	     34.11079304	     27.63486617	     45.00000000	    -45.00000000	   2428.81834150	    795.09372830	     21.66578843	   -159.02030389	   3598.85404497	    160.36833250	     15.72042768	     14.57007864	     -5.03776161	    -45.00000000	    -41.54652331	     45.00000000	    -45.00000000	   2626.95741509	  -3879.82495931	     24.45256127	     22.37604459	    349.45791660	     40.20676051	     13.92385584	    -22.21183736
      4.80000000	     30.52596432	     24.56466844	     35.64104813	   -118.04631642	    866.22500906	    -45.48864790	     12.58005130	     33.85859637	     27.75606601	     45.00000000	    -45.00000000	   2428.86596015	    794.94902149	     21.61119461	   -159.15926606	   3599.04707485	    160.82556636	     16.40500993	     14.33845174	     -4.94216432	    -45.00000000	    -41.45148064	     45.00000000	    -45.00000000	   2626.90904679	  -3880.04654175	     24.54407074	     22.22771073	    349.43726669	     40.38386171	     13.57160767	    -22.59794961
      4.81000000	     30.40575711	     24.78081635	     35.84760058	   -117.69601856	    865.28259509	    -45.42450033	     12.56149777	     33.86721111	     27.53926017	     45.00000000	    -45.00000000	   2428.92146622	    794.98432902	     21.67438856	   -159.28154524	   3599.01199125	    161.31110747	     16.34103714	     14.26885309	     -5.01710704	    -45.00000000	    -41.35293804	     45.00000000	    -45.00000000	   2626.81944046	  -3880.00430510	     24.46434820	     22.02735795	    349.47917553	     40.63067813	     13.56165298	    -22.55900340
      4.82000000	     30.33587278	     24.86046591	     35.96590615	   -117.29066311	    864.32627282	    -45.36016300	     12.64555482	     33.80926543	     27.56074409	     45.00000000	    -45.00000000	   2429.00836483	    794.88060102	     21.63749012	   -159.42516174	   3599.08273411	    161.60649947	     16.70758985	     14.25636047	     -4.98758660	    -45.00000000	    -41.25548986	     45.00000000	    -45.00000000	   2626.85889945	  -3880.03279586	     24.51645562	     21.88678753	    349.44966188	     40.72548521	     13.33427872	    -22.79811455
      4.83000000	     30.25620044	     25.00547735	     36.13832996	   -116.83483191	    863.39035081	    -45.29109471	     12.65949400	     33.86042007	     27.49616445	     45.00000000	    -45.00000000	   2429.03380105	    794.86049059	     21.67497683	   -159.52504864	   3599.00099201	    161.91937276	     16.50794865	     14.24871214	     -5.08672769	    -45.00000000	    -41.27235597	     45.00000000	    -45.00000000	   2626.78700017	  -3880.06930352	     24.39009163	     21.82772832	    349.56553427	     40.85332196	     13.38785306	    -22.70099803
      4.84000000	     30.21655510	     25.02188531	     36.25241145	   -116.33155242	    862.51089947	    -45.21238786	     12.70589826	     33.76252865	     27.59387576	     45.00000000	    -45.00000000	   2429.15473087	    794.75855567	     21.64421751	   -159.66926893	   3599.17331353	    161.99187301	     17.03341853	     14.20353321	     -5.01425489	    -45.00000000	    -41.14511366	     45.00000000	    -45.00000000	   2626.82733456	  -3880.06677964	     24.49577326	     21.79370771	    349.45825424	     40.81462317	     13.14437602	    -22.95965838
      4.85000000	     30.08474607	     25.20788782	     36.42006222	   -115.77875922	    861.71732663	    -45.11966604	     12.77418246	     33.92006184	     27.47412648	     45.00000000	    -45.00000000	   2429.12595686	    794.76700431	     21.72217047	   -159.71910428	   3598.93108051	    162.22573010	     16.35015434	     14.32939570	     -5.20001590	    -45.00000000	    -41.35320453	     45.00000000	    -45.00000000	   2626.69662835	  -3880.10148812	     24.31700938	     21.88225281	    349.70707412	     40.85067117	     13.33018514	    -22.68760729
      4.86000000	     30.22168175	     25.17634241	     36.26824471	   -115.16566603	    861.02551877	    -45.00892757	     12.79036281	     33.83519593	     27.59681354	     45.00000000	    -45.00000000	   2429.15808169	    794.67659839	     21.71971677	   -159.81842898	   3599.04466045	    162.14719227	     16.97491838	     14.35435914	     -5.14127578	    -45.00000000	    -41.25353701	     45.00000000	    -45.00000000	   2626.66773131	  -3880.22415376	     24.53734721	     22.03764910	    349.59229482	     40.67942640	     13.13194247	    -22.99139261
      4.87000000	     30.09482769	     25.37997535	     36.55768630	   -114.48059662	    860.44730711	    -44.87898429	     12.83758476	     33.81286754	     27.54457486	     45.00000000	    -45.00000000	   2429.19634167	    794.62999536	     21.69358609	   -159.91207883	   3599.01103069	    162.12801060	     16.72507477	     14.27550959	     -5.11667592	    -45.00000000	    -41.15425044	     45.00000000	    -45.00000000	   2626.59911361	  -3880.11280493	     24.50295425	     22.18422520	    349.54778714	     40.61099928	     13.24826517	    -22.77021163
      4.88000000	     30.07867855	     25.42605277	     36.63689820	   -113.70493243	    859.97921875	    -44.73001856	     12.84078625	     33.85954545	     27.73673644	     45.00000000	    -45.00000000	   2429.23474930	    794.49361376	     21.61036469	   -159.96120898	   3599.11797535	    161.99293437	     16.93280179	     14.36328690	     -5.13362941	    -45.00000000	    -41.18603277	     45.00000000	    -45.00000000	   2626.60344552	  -3880.19075994	     24.59600870	     22.45380915	    349.49890064	     40.40649603	     13.16929286	    -22.93338514
      4.89000000	     29.93166490	     25.54867314	     36.92978923	   -112.82433907	    859.61489727	    -44.56461194	     12.92858889	     33.82125442	     27.73624622	     45.00000000	    -45.00000000	   2429.32003577	    794.50267492	     21.65485830	   -159.99543203	   3599.11269962	    161.89976087	     16.53991643	     14.31697860	     -5.14970301	    -45.00000000	    -41.20313387	     45.00000000	    -45.00000000	   2626.50492386	  -3880.09623839	     24.49949788	     22.73664085	    349.59486660	     40.28112017	     13.27799850	    -22.67571388
      4.90000000	     30.09086696	     25.52112252	     36.84287620	   -111.82407466	    859.33849233	    -44.38589660	     12.86726513	     33.87656029	     28.04981917	     45.00000000	    -45.00000000	   2429.32457138	    794.44888219	     21.54678641	   -160.03479564	   3599.18070478	    161.64212573	     17.06036153	     14.49093747	     -5.07340243	    -45.00000000	    -41.22063901	     45.00000000	    -45.00000000	   2626.51486005	  -3880.34259066	     24.72876232	     23.08873316	    349.48779061	     40.03351579	     13.21714671	    -22.94756959
      4.91000000	     30.03399028	     25.64420510	     36.93599278	   -110.69485561	    859.12936894	    -44.19745958	     12.91104179	     33.88548225	     27.94229551	     45.00000000	    -45.00000000	   2429.33349297	    794.43312318	     21.69393999	   -160.13177831	   3598.99127786	    161.44221610	     16.58755118	     14.45573916	     -5.17176814	    -45.00000000	    -41.11143923	     45.00000000	    -45.00000000	   2626.27175699	  -3880.26323365	     24.78132853	     23.49255146	    349.56739683	     39.87337439	     13.36950357	    -22.68014608
